<svg height="512" viewBox="0 0 60 60" width="512" xmlns="http://www.w3.org/2000/svg"><path fill="#634b7f" d="M12.3 32.123a7.7 7.7 0 001.38.152 1 1 0 000-2 4.127 4.127 0 01-2.441-.753 2.672 2.672 0 00-2.882-.693c-.9.373-1.97 1.463-1.97 4.534a2.791 2.791 0 01-.942 2.253c-1.532 1.687-1.421 2.766-1 4.845.01.032.022.063.036.093.252.887.566 1.756.938 2.6a1 1 0 101.837-.791 25.085 25.085 0 01-.556-1.4c2.365-.746 4.793-2.4 5.582-4.8a7.3 7.3 0 00.018-4.04zm-1.92 3.423c-.552 1.679-2.4 2.89-4.181 3.473a2.237 2.237 0 01.727-2.059 4.765 4.765 0 001.461-3.6c0-1.435.355-3.432 1.409-2.449a7.085 7.085 0 01.585 4.635z"/><path fill="#634b7f" d="M55 28a5.009 5.009 0 00-4.9 4H37.941c3.212-6.132 4.014-11.534 1.827-18.131l6.727-1.7a5 5 0 10-.49-1.939l-6.95 1.756A21.4 21.4 0 0030.978 2a13.153 13.153 0 00-13.388-.322C5.221 8.1 5.079 21.65 5.079 22.224v2.067c0 9.52-9.088 1.732-2.966 27.127 2.125 8.817 9.861 10.417 14.556 6.757 3.142-2.441 4.5-5.987 6.2-8.435L40 53.052a5 5 0 10.38-1.964l-15.945-3.082A53.161 53.161 0 0036.816 34H50.1a5 5 0 104.9-6zM48.424 8.463a3 3 0 115.153 3.074 3 3 0 01-5.153-3.074zM35.658 32h-2.011a21.645 21.645 0 002.577-17.236l1.61-.407C40 20.793 39.057 25.965 35.658 32zm-7.8 0c1.085-2.188.535-4.355-.734-6.461-2.739-4.539-10.112-6.121-13.376-6.611-.29-4.016.564-8.493 4.774-11.2 6.163-3.96 12.4-.651 15.093 5.631l-6.129 1.548a1 1 0 10.49 1.94l6.317-1.6c1.643 5.679.3 12.6-3.16 16.748zM43.32 50.515a3 3 0 014.625 3.054 3 3 0 01-5.43 1.11 2.943 2.943 0 01-.46-2.249 2.977 2.977 0 011.265-1.915zm-19.851-4.288a7.645 7.645 0 00-1.431 1.316l-8.267-1.6a1 1 0 10-.379 1.964l7.35 1.421c-1.572 2.5-2.8 5.322-5.3 7.267-3.7 2.888-9.648 1.551-11.382-5.647C3.208 47.424.622 36.7 2.93 33.11c1.9-2.959 4.149-3.225 4.149-8.819v-2.067c0-.128.13-12.906 11.432-18.77 7.859-4.072 15.11.993 18.6 9.022l-1.551.392C32.413 5.146 24.693 1.386 17.441 6.047c-10.462 6.723-3.393 22.2-3.32 22.358a1 1 0 101.812-.845A28.673 28.673 0 0114 20.994c2.827.477 9.213 1.932 11.413 5.578 1.488 2.47 1.224 4 .076 5.428H20a1 1 0 000 2h3.228a52.7 52.7 0 01-10.585 5.066 1 1 0 00.714 1.868C20.074 38.363 24.168 36.205 26.37 34h2.846c-2.681 2.524-5.589 4.691-8.1 9.54a1 1 0 001.776.92c2.806-5.409 6.222-7.286 9.151-10.46h2.415a51.024 51.024 0 01-10.989 12.227zM55 36a3 3 0 110-6 3 3 0 010 6z"/></svg>
