<svg height="512pt" viewBox="0 0 512 512" width="512pt" xmlns="http://www.w3.org/2000/svg"><path fill="#634b7f" d="M511.934 270.61l-.223-2.391c.187-4.059.289-8.13.289-12.219 0-68.383-26.629-132.668-74.98-181.02C388.668 26.63 324.379 0 256 0S123.332 26.629 74.98 74.98C26.63 123.332 0 187.617 0 256c0 1.766.027 3.527.063 5.29-.063 3.585-.083 7.23-.036 10.944.004.336.02.668.043 1.004 2.035 25.836 6.403 48.117 13.364 68.117.046.141.101.282.152.422 8.695 22.762 19.402 42.965 31.82 60.051.086.117.176.238.266.356.281.363.566.718.848 1.078a259.425 259.425 0 0028.46 33.758C123.332 485.37 187.621 512 256 512s132.668-26.629 181.02-74.98c43.375-43.375 69.25-99.57 74.125-160.043.695-1.985 1-4.137.789-6.368zM345.102 463.68a218.985 218.985 0 0016.261-10.809c.04-.027.075-.055.114-.082 22.793-17.008 42.671-39.227 57.496-64.262 13.656-22.414 19.875-44.285 23.765-60.84.047-.21.094-.421.133-.636.711-3.742 1.488-7.438 2.317-10.985.062-.277.12-.558.167-.84.504-2.914.692-5.535.856-7.843.086-1.211.168-2.356.277-3.254.008-.067.02-.125.024-.192l.996-8.847c.347-2.895.238-5.418.16-7.266-.023-.59-.055-1.262-.047-1.554.008-.211.012-.422.008-.633-.106-8.102.078-12.57.09-12.836.011-.219-.004-.43-.004-.645a14.71 14.71 0 00-.149-2.367c-.003-.047-.675-4.562-1.445-12.789a15.48 15.48 0 00-.07-.613c-.035-.278-.074-.93-.11-1.504-.113-1.828-.265-4.324-.921-7.18l-1.907-8.59c-.015-.066-.027-.136-.047-.207-.203-.855-.398-1.957-.605-3.12-.395-2.231-.848-4.766-1.648-7.571a15.201 15.201 0 00-.258-.817 261.557 261.557 0 01-3.383-10.394c-.063-.211-.133-.422-.207-.629-5.438-15.488-13.621-35.797-28.797-55.586-16.25-21.797-36.715-40.344-59.191-53.644-.04-.024-.079-.047-.122-.07-26.253-15.212-56.39-24.387-87.175-26.548-3.32-.386-6.39-.25-8.883-.14-1.285.058-2.504.113-3.434.082a8.032 8.032 0 00-.433-.012l-5.383-.039c-3.266-.172-6.094-.008-8.828.516-2.211.34-4.602.566-7.121.804-5.059.48-10.746 1.02-16.63 2.688-17.566 2.953-33.558 10.062-47.198 16.52-.422.199-.832.417-1.23.656a182.5 182.5 0 01-9.618 5.316l-.313.164c-2.921 1.59-5.34 3.379-7.472 4.953-1.172.871-2.282 1.692-3.235 2.29-.082.05-.16.1-.238.152l-5.012 3.289c-.586.382-1.14.808-1.668 1.27l-4.554 3.995c-.082.074-.164.149-.242.223-.961.879-2.137 1.82-3.38 2.816-1.878 1.508-4.007 3.215-6.117 5.285-11.562 11.079-22.144 24.415-32.343 40.77-.102.16-.2.324-.297.492-7.875 13.781-14.149 29.488-19.176 48.024-.055.195-.102.394-.148.593-3.348 14.7-4.758 30.926-4.438 51.067.008.465.035.93.086 1.394 2.16 19.7 5.547 35.36 10.656 49.29.074.199.153.398.235.593 7.047 16.934 14.832 30.953 23.804 42.867.13.168.258.332.39.493 11.356 13.832 22.52 24.75 34.138 33.367 2.183 1.66 4.308 2.945 6.187 4.082 1.188.715 2.309 1.39 3.149 1.992.082.058.164.117.25.176l4.39 3.011c.64.442 1.317.832 2.02 1.168l4.804 2.293c.09.043.184.086.274.13.781.35 1.781.921 2.848 1.527 1.964 1.113 4.41 2.504 7.32 3.609.125.05.25.094.379.14a113.67 113.67 0 018.472 3.34c.5.223 1.016.418 1.536.582 13.785 4.368 27.363 8.32 41.8 8.817 2.961.469 5.793.601 8.477.601 1.922 0 3.762-.07 5.516-.132 2.078-.082 4.054-.153 5.746-.086 3.336.27 6.238-.149 8.285-.547l4.25-.602c.156-.023.312-.047.469-.074.5-.09 1.414-.148 2.296-.21 2.043-.138 4.79-.321 7.786-1.102 24.5-5.067 46.699-15.063 65.984-29.72l.176-.136c15.683-12.281 29.3-28.242 39.386-46.16 9.149-15.59 12.778-30.227 15.461-42.727.067-.308.121-.617.168-.93.332-2.23.754-4.394 1.246-6.437.098-.394.176-.797.239-1.195.379-2.414.422-4.578.453-6.156.012-.551.023-1.305.055-1.563.02-.203.039-.402.054-.605.114-1.672.278-3.282.504-4.922.008-.04.012-.082.016-.121.37-2.848.12-5.266-.028-6.711-.015-.16-.035-.32-.046-.473 0-.195-.008-.387-.016-.578-.2-3.93-.121-6.34-.086-7.102a14.91 14.91 0 00-.332-4.843c-.008-.024-.586-2.618-1.086-7.332a14.3 14.3 0 00-.074-.59c-.008-.133-.016-.266-.02-.399-.07-1.437-.191-3.847-1.02-6.64-.015-.043-.027-.086-.038-.125a71.428 71.428 0 01-1.27-4.711 17.352 17.352 0 00-.152-.61c-.063-.226-.184-.914-.274-1.41-.265-1.504-.632-3.562-1.375-5.844a14.852 14.852 0 00-.449-1.203 64.446 64.446 0 01-2.152-5.836c-.106-.32-.215-.64-.34-.957-4.438-11.324-10.063-24.476-20.715-37.343-11.633-14.61-25.898-26.82-41.273-35.32-.07-.04-.141-.079-.215-.114-17.903-9.52-37.531-14.848-58.352-15.844-2.867-.297-5.367-.023-7.078.16-.414.047-.969.11-1.203.122-.3-.008-.605-.004-.906.003-.774.032-1.586.04-2.461.028-2.922-.192-5.59.062-8.133.761-1.059.227-2.46.383-3.937.547-3.102.348-6.868.77-10.903 2.145-10.488 2.008-19.676 6.543-27.82 10.562l-2.188 1.079c-.668.328-1.312.707-1.925 1.128a37.529 37.529 0 01-4.594 2.735c-.168.086-.332.176-.5.265-2.485 1.372-4.36 2.957-5.727 4.114-.383.324-.91.77-1.035.863-.238.148-.469.305-.695.465a38.17 38.17 0 01-2.219 1.465 15.112 15.112 0 00-2.812 2.215l-2.7 2.707c-.086.085-.168.171-.25.257-.207.215-.882.77-1.379 1.172-1.21.989-2.71 2.215-4.257 3.86-8.704 9.039-15.172 19.129-19.836 26.914-.164.27-.317.543-.461.824-5.54 10.719-8.645 21.566-10.95 30.77-.082.331-.152.663-.21 1-1.914 10.66-1.832 20.761-1.543 31.917.02.762.097 1.52.23 2.27 1.758 9.797 3.824 20.2 7.973 30.226.14.34.293.672.453.997 3.965 7.898 8.937 17.093 15.75 25.406.223.273.457.539.7.797 5.925 6.27 13.136 13.457 21.722 19.285 1.773 1.242 3.433 2.062 4.652 2.668.281.137.566.27.836.418l.145.097 2.546 1.72a15.08 15.08 0 003.82 1.847c.594.191 1.16.398 1.677.613.18.074.359.149.539.215.164.086.32.18.48.27 1.36.757 3.406 1.902 6.16 2.667.227.063.45.118.676.172a15.42 15.42 0 012.848.922c.89.395 1.82.7 2.77.914 1.23.278 2.448.567 3.652.856 6.167 1.472 13.093 3.117 20.804 2.879 1.145.136 2.242.187 3.281.187 2.075 0 3.922-.21 5.461-.39a38.34 38.34 0 011.805-.184c2.672.266 5.356-.05 8.152-.95.332-.081.66-.152 1.004-.214l.43-.082c.04-.004.078-.008.117-.008 1.399-.086 3.852-.234 6.66-1.227 13.993-4.03 26.024-10.375 36.75-19.37a8.4 8.4 0 00.34-.297c8.543-7.61 15.824-17.329 21.067-28.118 4.68-8.93 5.925-17.382 6.754-22.992.09-.594.171-1.164.257-1.719.051-.308.086-.62.118-.93.792-8.648.253-15.136-.016-18.3a14.993 14.993 0 00-.336-4.324l.008.027s-.012-.043-.024-.105c0-.008 0-.012-.004-.02-.05-.273-.171-.98-.289-2.078-.004-.031-.004-.063-.007-.098-.051-.914-.165-2.64-.797-4.773a24.57 24.57 0 01-.461-1.738l-.032-.176c-.14-.785-.375-2.106-.875-3.649-.136-.41-.285-.816-.457-1.215a20.05 20.05 0 01-.636-1.726 15.012 15.012 0 00-.34-.969c-1.547-3.933-4.414-11.242-10.18-18.23-5.664-7.098-12.629-13.04-20.156-17.2-.07-.039-.14-.074-.211-.113-8.715-4.633-18.246-7.242-28.34-7.758-2.023-.183-3.664-.004-4.605.102-.09 0-.18.004-.27.008-.152.004-.305.004-.46.008-1.97-.106-3.821.066-5.622.52-.254.038-.512.062-.765.089-1.461.16-3.528.394-5.887 1.129-5.371 1.117-9.856 3.328-13.516 5.133l-.914.453c-.676.328-1.32.71-1.937 1.137a8.914 8.914 0 01-.961.574c-.16.082-.325.164-.48.254-1.802.992-3.071 2.066-3.829 2.707l-.047.039c-.047.035-.094.066-.14.101-.141.098-.282.192-.426.278a14.931 14.931 0 00-2.813 2.21l-1.09 1.094-.125.102c-.593.484-1.566 1.281-2.601 2.379-4.293 4.46-7.395 9.289-9.621 13.004-.164.27-.317.547-.461.828-2.793 5.402-4.344 10.855-5.383 15.008-.082.328-.152.66-.215.996-.953 5.308-.918 10.3-.789 15.367.02.766.098 1.531.23 2.281.801 4.445 1.829 9.61 3.922 14.68.141.336.293.668.458.996 1.898 3.789 4.308 8.23 7.757 12.445.227.274.465.543.707.805 2.848 3.008 6.336 6.477 10.672 9.426a22.415 22.415 0 002.852 1.66l.71.476a14.991 14.991 0 003.727 1.82c.852.466 2.305 1.208 4.196 1.731.171.047.351.094.527.137.824.348 1.68.621 2.55.82.489.11.973.227 1.45.34 2.805.668 6.191 1.48 10.203 1.48.691 0 1.406-.027 2.137-.078 8.265-.605 14.508-7.793 13.902-16.054-.601-8.266-7.781-14.461-16.015-13.871-.528-.004-2.11-.383-3.262-.657-.207-.05-.418-.097-.625-.148a30.906 30.906 0 00-1.637-.547 19.61 19.61 0 00-1.918-.871 23.645 23.645 0 00-2.246-1.266c-1.71-1.222-3.46-2.953-5.008-4.57-1.347-1.742-2.554-3.945-3.586-5.973-.687-1.808-1.199-4.062-1.742-6.968-.062-3-.055-5.54.281-7.723.633-2.469 1.434-5.215 2.602-7.594 1.355-2.234 3.113-4.937 5.133-7.062l.082-.07c.535-.438 1.41-1.153 2.347-2.114l.262-.18a23.778 23.778 0 002.11-1.593 38.155 38.155 0 002.242-1.34l.086-.043c2.539-1.254 4.937-2.438 6.562-2.707.793-.133 1.57-.328 2.332-.586.188-.023.375-.04.567-.063.812-.09 1.843-.207 3.02-.421.41-.012.827-.008 1.23-.02 1.011 0 1.867-.074 2.48-.14 5.68.269 10.992 1.695 15.8 4.23 5.173 2.883 8.93 6.844 11.173 9.668.066.086.136.172.207.254 2.441 2.941 3.902 6.273 5.27 9.73.277.848.581 1.7.91 2.54.093.507.218 1.171.413 1.925.149.617.305 1.227.473 1.828.024.285.055.606.102.953a59.91 59.91 0 00.406 3.02c.016.969.082 1.828.14 2.512.22 2.558.583 6.804.079 12.648-.07.473-.145.953-.215 1.445-.664 4.48-1.348 9.118-3.715 13.575-.09.171-.176.343-.262.515-2.457 5.098-6.87 12.488-13.957 18.86-7.52 6.261-16.043 10.683-26.043 13.507-1.027.063-2.543.18-4.297.59-.894.172-1.785.371-2.66.594-2.265-.035-4.261.191-5.926.387-.585.066-1.347.156-1.785.18a14.892 14.892 0 00-3.773-.2c-3.844.274-8.356-.793-13.567-2.039-.898-.215-1.804-.43-2.714-.64a45.5 45.5 0 00-5.555-1.81 6.477 6.477 0 01-.168-.093c-1.031-.574-2.54-1.418-4.465-2.129a48.544 48.544 0 00-1.543-.597l-.793-.536c-1.734-1.21-3.36-2.015-4.562-2.609-.297-.148-.692-.344-.887-.45-.047-.034-.098-.066-.145-.1-6.074-4.102-11.714-9.708-16.472-14.723-4.66-5.786-8.313-12.497-11.563-18.942-2.754-6.836-4.375-14.797-5.765-22.46-.22-8.837-.246-16.81 1.023-24.231 1.836-7.285 4.246-15.672 8.16-23.364 3.836-6.382 9.035-14.449 15.524-21.171.07-.07.132-.137.203-.211.203-.215.87-.762 1.36-1.16 1.136-.93 2.542-2.075 3.995-3.586l1.407-1.407c.71-.46 1.41-.937 2.097-1.422 1.653-1.085 2.992-2.218 3.992-3.066.313-.266.723-.61.97-.805a68.678 68.678 0 006.566-3.875l1.292-.636c7.313-3.61 14.215-7.02 20.946-8.137a15.072 15.072 0 003.14-.883c.86-.348 2.899-.574 4.696-.773 2.207-.25 4.691-.528 7.414-1.149.125.008.246.012.37.012 1.446.027 2.806.023 4.13-.02 1.855.043 3.453-.164 4.66-.296.324-.036.742-.082 1.016-.106.296.031.597.055.894.066 16.5.723 31.996 4.872 46.063 12.329 15.082 8.363 25.882 19.726 32.293 27.793.066.086.132.168.203.253 7.746 9.325 12.066 19.329 15.789 28.801a96.26 96.26 0 002.605 7.106c.086.394.192.98.281 1.48.188 1.07.422 2.387.801 3.82.446 1.891.953 3.797 1.516 5.688l.012.242c.039.774.09 1.797.261 2.992.407 3.77.864 6.586 1.203 8.399-.054 1.84-.07 4.695.114 8.55.02 1.172.125 2.18.203 2.942.012.121.027.246.039.375a99.093 99.093 0 00-.606 6.012c-.14 1.449-.164 2.789-.187 3.879-.012.582-.023 1.277-.059 1.738a103.05 103.05 0 00-1.48 7.719c-2.281 10.582-5.125 21.87-11.965 33.488-.055.09-.105.176-.152.266-8.157 14.52-19.117 27.41-31.715 37.296-15.777 11.97-34.016 20.125-54.219 24.243a11.17 11.17 0 00-1.066.261c-.367.078-1.47.153-2.274.207-1.433.098-3.207.22-5.156.543l-4.477.633c-.316.047-.632.102-.945.164a8.596 8.596 0 01-.523.098 7.491 7.491 0 00-.418-.024c-3.059-.152-6.02-.043-8.633.055-3.25.125-6.32.238-8.559-.187a15.283 15.283 0 00-2.492-.262c-10.687-.227-21.644-3.379-33.793-7.215a142.813 142.813 0 00-9.672-3.793c-.75-.308-1.86-.937-3.031-1.605-1.488-.844-3.172-1.801-5.137-2.703l-3.625-1.727-3.308-2.273c-1.75-1.243-3.465-2.278-4.977-3.192-1.367-.824-2.656-1.605-3.562-2.297l-.188-.14c-9.574-7.098-18.965-16.297-28.695-28.118-7.313-9.761-13.777-21.476-19.762-35.796-4.133-11.36-6.941-24.489-8.812-41.23-.235-17.2.922-30.872 3.636-42.93 4.309-15.794 9.559-29.028 16.047-40.442 8.828-14.121 17.84-25.504 27.547-34.79.05-.05.098-.097.149-.144 1.05-1.035 2.449-2.156 3.93-3.343 1.456-1.168 3.105-2.489 4.753-3.996l3.652-3.204 4.024-2.64c1.855-1.176 3.508-2.399 4.969-3.48 1.425-1.055 2.773-2.051 3.847-2.653a212.27 212.27 0 0010.387-5.73c11.883-5.61 25.645-11.688 39.441-13.88.692-.109 1.375-.265 2.047-.472 3.332-1.02 7.407-1.406 11.72-1.813 2.964-.28 6.034-.57 9.26-1.085.196-.032.395-.067.59-.11.2-.035.708-.094 1.903-.02.266.016.531.024.793.024l5.555.04c2.047.066 3.941-.02 5.62-.099 1.583-.07 3.223-.14 4.106-.023.32.043.645.074.969.098 26.352 1.793 52.125 9.593 74.535 22.566 19.09 11.309 36.524 27.145 50.414 45.8.047.06.09.118.137.177 12.469 16.23 19.258 32.863 24.246 47.03 1.09 3.587 2.27 7.22 3.512 10.806.332 1.25.59 2.703.86 4.226.265 1.488.538 3.027.92 4.66l1.9 8.559c.011.055.023.11.038.164.098.43.16 1.418.211 2.285.063 1 .13 2.117.282 3.352.597 6.336 1.144 10.672 1.425 12.77-.062 2.097-.152 6.468-.074 12.925-.02 1.234.028 2.355.07 3.36.04.906.083 1.937.028 2.402l-.024.16-.992 8.824c-.203 1.664-.316 3.238-.422 4.762-.117 1.613-.226 3.148-.433 4.496a309.667 309.667 0 00-2.395 11.375c-3.59 15.234-8.812 33.273-20.148 51.86l-.106.175c-12.812 21.66-29.968 40.863-49.613 55.535-23.937 17.512-52.5 29.543-82.602 34.805-.27.047-.542.105-.816.168-1.426.332-3.445.473-5.586.621-1.824.129-3.883.27-6.05.559l-6.524.707c-.215.02-.426.05-.64.082-1.481.226-2.579.304-3.36.242-.2-.016-.395-.028-.594-.035-3.387-.13-6.691-.102-9.887-.078-5.636.05-10.96.09-15.71-.743a13.967 13.967 0 00-1.715-.199c-17.832-1.05-35.696-6.621-50.883-11.988a429.106 429.106 0 00-13.426-5.653c-1.86-.8-3.937-1.988-6.137-3.246-1.867-1.07-3.797-2.171-5.933-3.25l-5.778-3.039-5.39-3.718c-1.946-1.391-3.856-2.637-5.703-3.84-2.293-1.492-4.457-2.903-6.285-4.34l-.13-.102c-13.148-10.105-25.921-22.875-38.015-37.988-25.703-35.742-41.246-79.266-42.352-126.3.375-19.106 2.442-36.071 6.278-51.579 6.043-21.531 14.113-40.855 23.992-57.445 12.055-18.957 25.398-35.254 39.668-48.43l.105-.101c1.934-1.82 4.184-3.606 6.567-5.497 1.816-1.44 3.691-2.93 5.59-4.558l5.636-4.664 6.082-3.977c2.094-1.316 4.024-2.656 5.887-3.953 2.453-1.703 4.77-3.312 6.875-4.453 4.707-2.516 9.395-5.02 14.063-7.516 22.64-10.507 40.082-16.332 56.507-18.882.504-.079 1.004-.18 1.497-.313 5.851-1.531 12.25-2.074 19.023-2.648 3.355-.286 6.82-.582 10.344-1.008.148-.02.3-.04.449-.063 1.246-.187 2.785-.234 4.851-.132.165.007.333.011.497.015l7.609.106c2.305.086 4.469.054 6.559.027 2.734-.04 5.312-.078 7.37.191.243.032.489.055.735.075 36.512 2.894 72.156 14.28 103.004 32.882 26.23 16.04 49.918 38.137 68.504 63.903.031.047.066.093.101.136 17.73 24.004 27.094 48.723 32.602 65.29l.55 1.824 3.821 12.554c.578 2.23.992 4.567 1.434 7.036.308 1.726.625 3.515 1.011 5.324l.438 2.207c.66 3.316 1.277 6.422 1.86 9.316.26 1.309.366 2.88.476 4.547.086 1.242.168 2.527.324 3.895l1.258 13.324c-4.91 87.488-59.809 161.84-136.531 194.883zm0 0"/></svg>
