<svg height="512pt" viewBox="0 0 512 512" width="512pt" xmlns="http://www.w3.org/2000/svg"><path fill="#634b7f" d="M292 348c0-10.215-4.281-19.441-11.14-26 6.859-6.559 11.14-15.785 11.14-26s-4.281-19.441-11.14-26c6.859-6.559 11.14-15.785 11.14-26s-4.281-19.441-11.14-26c6.859-6.559 11.14-15.785 11.14-26s-4.281-19.441-11.14-26c6.859-6.559 11.14-15.785 11.14-26s-4.281-19.441-11.14-26c6.859-6.559 11.14-15.785 11.14-26s-4.281-19.441-11.14-26C287.718 55.441 292 46.215 292 36c0-19.852-16.148-36-36-36s-36 16.148-36 36c0 10.215 4.281 19.441 11.14 26C224.282 68.559 220 77.785 220 88s4.281 19.441 11.14 26c-6.859 6.559-11.14 15.785-11.14 26s4.281 19.441 11.14 26c-6.859 6.559-11.14 15.785-11.14 26s4.281 19.441 11.14 26c-6.859 6.559-11.14 15.785-11.14 26s4.281 19.441 11.14 26c-6.859 6.559-11.14 15.785-11.14 26s4.281 19.441 11.14 26c-6.859 6.559-11.14 15.785-11.14 26 0 19.852 16.148 36 36 36s36-16.148 36-36zM240 36c0-8.82 7.18-16 16-16s16 7.18 16 16-7.18 16-16 16-16-7.18-16-16zm0 52c0-8.82 7.18-16 16-16s16 7.18 16 16-7.18 16-16 16-16-7.18-16-16zm0 52c0-8.82 7.18-16 16-16s16 7.18 16 16-7.18 16-16 16-16-7.18-16-16zm0 52c0-8.82 7.18-16 16-16s16 7.18 16 16-7.18 16-16 16-16-7.18-16-16zm0 52c0-8.82 7.18-16 16-16s16 7.18 16 16-7.18 16-16 16-16-7.18-16-16zm0 52c0-8.82 7.18-16 16-16s16 7.18 16 16-7.18 16-16 16-16-7.18-16-16zm16 68c-8.82 0-16-7.18-16-16s7.18-16 16-16 16 7.18 16 16-7.18 16-16 16zm0 0M196.18 352.734l-22.434-17.437c-20.008-15.55-31.48-39.004-31.48-64.344v-53.21c0-21.278-17.313-38.59-38.59-38.59A38.354 38.354 0 0085 183.987v-77.574c0-11.351-4.422-22.023-12.45-30.05-8.027-8.028-18.698-12.45-30.054-12.45C19.066 63.914 0 82.98 0 106.414v216.14c.004 42.72 14.457 84.801 40.7 118.497l52.253 67.094a9.983 9.983 0 007.895 3.855 9.968 9.968 0 006.14-2.11c4.356-3.394 5.137-9.675 1.742-14.035l-52.253-67.093c-23.52-30.2-36.473-67.918-36.477-106.207v-216.14c0-12.403 10.094-22.5 22.5-22.5 6.012 0 11.66 2.343 15.91 6.593A22.34 22.34 0 0165 106.414l.09 210.719c0 20.742 5.976 40.894 17.285 58.285l14.297 21.98a10.004 10.004 0 006.297 4.329l.578.12c5.398 1.153 10.715-2.288 11.867-7.69a9.998 9.998 0 00-3.312-9.72L99.14 364.512a86.68 86.68 0 01-14.055-47.38v-99.39c0-10.25 8.34-18.59 18.59-18.59s18.59 8.34 18.59 18.59v53.211c0 31.559 14.289 60.766 39.203 80.133l22.433 17.437C203.032 383.395 214 405.816 214 430.04V502c0 5.523 4.477 10 10 10s10-4.477 10-10v-71.96c0-30.442-13.785-58.618-37.82-77.306zm0 0M502 208a10.08 10.08 0 00-7.07 2.93c-1.86 1.86-2.93 4.441-2.93 7.07s1.07 5.21 2.93 7.07c1.86 1.86 4.441 2.93 7.07 2.93s5.21-1.07 7.07-2.93c1.86-1.86 2.93-4.441 2.93-7.07s-1.07-5.21-2.93-7.07A10.08 10.08 0 00502 208zm0 0M502 250.332c-5.523 0-10 4.48-10 10v62.223c-.004 38.289-12.957 76.008-36.48 106.207l-52.254 67.093a9.999 9.999 0 001.746 14.036 9.949 9.949 0 006.136 2.109 9.985 9.985 0 007.899-3.855L471.3 441.05c26.242-33.696 40.695-75.778 40.695-118.496v-62.223c.004-5.52-4.473-10-9.996-10zm0 0"/><path fill="#634b7f" d="M408.45 401.852l.581-.125a9.99 9.99 0 006.297-4.329l14.297-21.98a106.653 106.653 0 0017.285-58.285l.09-210.719a22.34 22.34 0 016.59-15.906c4.25-4.25 9.898-6.594 15.91-6.594 12.406 0 22.5 10.098 22.5 22.5V181c0 5.523 4.477 10 10 10s10-4.477 10-10v-74.586c0-23.434-19.066-42.5-42.5-42.5-11.352 0-22.023 4.422-30.05 12.45-8.028 8.027-12.45 18.698-12.45 30.05v77.574a38.376 38.376 0 00-18.676-4.836c-21.277 0-38.59 17.313-38.59 38.59v53.211c0 25.34-11.472 48.793-31.48 64.344l-22.434 17.437C291.785 371.422 278 399.598 278 430.04V502c0 5.523 4.477 10 10 10s10-4.477 10-10v-71.96c0-24.224 10.969-46.645 30.098-61.513l22.43-17.437c24.917-19.371 39.206-48.578 39.206-80.137v-53.21c0-10.25 8.34-18.59 18.59-18.59s18.59 8.34 18.59 18.59v99.39a86.68 86.68 0 01-14.055 47.379l-12.96 19.925a10.001 10.001 0 00-3.313 9.723c1.152 5.399 6.46 8.848 11.863 7.692zm0 0"/></svg>
